# xmcd
# Track frame offsets:
# 150
# 18161
# 34703
# 49519
# 64198
# 78589
# 93816
# 110571
# 127021
#
# Disc length: 1923 seconds
# Revision: 0
# Processed by: cddbd v1.5.1PL0 Copyright (c) Steve Scherf et al.
# Submitted via: VisiTrax 2.9.10.228 - For more info visit www.synapsa.com
#
DISCID=6b078109
DTITLE=Various Artist - Hits Monthly Nashville  PHN0406
DYEAR=1900
DGENRE=Karaoke
TTITLE0=Keith, Toby - Whiskey Girl
TTITLE1=Wilson, Gretchen - Redneck Woman
TTITLE2=Pinmonkey - Let's Kill Saturday Night
TTITLE3=Byrd, Tracy - How'd I Wind Up In Jamaica
TTITLE4=Lawson, Shannon - Everybody Wants (Something They Can't
TTITLE5=Williams, Jr, Hank - Why Can't We All Just Get A Long Neck?
TTITLE6=Wright, Chely - Back Of The Bottom Drawer
TTITLE7=Jenkins, The - Blame It On Mama
TTITLE8=Gracin, Josh - I Want To Live
EXTD=
EXTT0=
EXTT1=
EXTT2=
EXTT3=
EXTT4=
EXTT5=
EXTT6=
EXTT7=
EXTT8=
PLAYORDER=
